<!DOCTYPE svg PUBLIC "-//W3C//DTD SVG 20010904//EN" "http://www.w3.org/TR/2001/REC-SVG-20010904/DTD/svg10.dtd">
<svg version="1.0" xmlns="http://www.w3.org/2000/svg" width="136px" height="85px" viewBox="0 0 1360 850" preserveAspectRatio="xMidYMid meet">
<g id="layer101" fill="#832726" stroke="none">
 <path d="M0 425 l0 -425 680 0 680 0 0 425 0 425 -680 0 -680 0 0 -425z"/>
 </g>
<g id="layer102" fill="#be0a0b" stroke="none">
 <path d="M0 425 l0 -425 680 0 680 0 0 425 0 425 -680 0 -680 0 0 -425z m770 302 c0 -2 -21 -53 -46 -113 -25 -60 -48 -118 -52 -129 -4 -15 -9 -8 -23 30 -9 28 -30 87 -47 133 l-31 82 100 0 c54 0 99 -1 99 -3z"/>
 </g>
<g id="layer103" fill="#c93334" stroke="none">
 <path d="M0 425 l0 -425 680 0 680 0 0 425 0 425 -680 0 -680 0 0 -425z m770 302 c0 -2 -21 -53 -46 -113 -25 -60 -48 -118 -52 -129 -4 -15 -9 -8 -23 30 -9 28 -30 87 -47 133 l-31 82 100 0 c54 0 99 -1 99 -3z m157 -394 c-4 -3 -10 -3 -14 0 -3 4 0 7 7 7 7 0 10 -3 7 -7z m27 -96 c16 -45 32 -86 36 -92 4 -5 11 -25 15 -43 l7 -32 -96 0 c-53 0 -96 3 -96 8 -1 13 94 242 99 242 3 0 19 -37 35 -83z"/>
 </g>
<g id="layer104" fill="#6a6967" stroke="none">
 <path d="M0 425 l0 -425 680 0 680 0 0 425 0 425 -680 0 -680 0 0 -425z m847 105 c64 -176 72 -193 82 -170 6 14 42 102 80 195 l69 170 101 3 102 3 -14 -33 c-7 -18 -67 -167 -133 -331 l-119 -297 -101 0 -101 0 -98 268 c-53 147 -108 295 -121 330 l-23 63 102 -3 102 -3 72 -195z"/>
 </g>
<g id="layer105" fill="#a19fa0" stroke="none">
 <path d="M0 425 l0 -425 680 0 680 0 0 425 0 425 -680 0 -680 0 0 -425z m847 105 c64 -176 72 -193 82 -170 6 14 42 102 80 195 l69 170 101 3 102 3 -14 -33 c-7 -18 -67 -167 -133 -331 l-119 -297 -101 0 -101 0 -98 268 c-53 147 -108 295 -121 330 l-23 63 102 -3 102 -3 72 -195z m-398 -315 c17 -55 36 -107 41 -116 5 -9 6 -20 3 -23 -11 -11 -193 -7 -193 5 0 5 12 36 26 67 14 31 37 85 51 120 14 35 29 60 33 55 4 -4 22 -53 39 -108z"/>
 </g>
<g id="layer106" fill="#ffffff" stroke="none">
 <path d="M0 425 l0 -425 680 0 680 0 0 425 0 425 -680 0 -680 0 0 -425z m346 110 l61 -190 22 50 c13 28 50 114 83 193 l60 142 101 0 102 0 70 -195 c39 -106 73 -191 77 -187 4 4 23 48 42 97 19 50 53 133 75 185 l39 95 101 3 102 3 -14 -33 c-7 -18 -67 -167 -132 -330 l-118 -298 -102 0 -102 0 -58 158 c-32 86 -64 175 -72 197 -8 22 -16 41 -17 43 -2 1 -40 -88 -86 -198 l-84 -200 -101 0 -100 0 -104 317 c-56 174 -105 323 -108 330 -4 11 14 13 98 11 l103 -3 62 -190z"/>
 </g>

</svg>